<svg width="68" height="81" viewBox="0 0 68 81" fill="none" xmlns="http://www.w3.org/2000/svg">
<g clip-path="url(#clip0_144_21)">
<path d="M12.3933 80.9995C11.8835 80.8954 11.3737 80.7801 10.8602 80.6834C4.8781 79.5489 0.770066 75.3012 0.151612 69.2607C-0.107014 66.7389 0.0204247 64.1538 0.181598 61.6134C0.380253 58.5411 0.946232 55.5059 1.88703 52.5638C3.12019 48.6992 4.87061 45.1248 8.09032 42.4616C10.9202 40.122 14.2561 39.1066 17.8881 39.1363C18.7052 39.1438 19.5673 39.5901 20.317 39.9955C21.5014 40.6353 22.6109 41.4201 23.7541 42.138C27.2774 44.3511 31.0968 45.5488 35.2911 45.2363C38.3796 45.0094 41.2357 43.9829 43.8782 42.3835C44.7853 41.8367 45.7261 41.3197 46.5432 40.6576C48.6947 38.9206 51.086 38.902 53.6273 39.4599C58.4175 40.5088 61.7422 43.3691 64.0398 47.5648C66.0039 51.1541 67.0609 55.0336 67.5144 59.0469C67.848 61.9965 68.0054 64.9795 68.0054 67.9477C68.0092 74.2858 63.5751 79.4634 57.2931 80.661C56.7271 80.7689 56.1648 80.8805 55.5989 80.9921C41.1945 80.9995 26.7939 80.9995 12.3933 80.9995Z" fill="white"/>
<path d="M33.4837 39.0512C22.5952 39.0475 13.8281 30.3253 13.8281 19.5014C13.8319 8.6516 22.5577 0 33.4987 0C44.3985 0 53.1956 8.71856 53.1843 19.5163C53.1768 30.3067 44.3535 39.055 33.4837 39.0512Z" fill="white"/>
</g>
<defs>
<clipPath id="clip0_144_21">
<rect width="68" height="81" fill="white"/>
</clipPath>
</defs>
</svg>
