<?xml version="1.0" encoding="UTF-8"?>
<svg xmlns="http://www.w3.org/2000/svg" xmlns:xlink="http://www.w3.org/1999/xlink" width="32px" height="32px" viewBox="0 0 32 32" version="1.1">
<g id="surface1">
<path style=" stroke:none;fill-rule:nonzero;fill:rgb(0%,0%,0%);fill-opacity:1;" d="M 16 10.5 C 12.960938 10.5 10.5 12.960938 10.5 16 C 10.5 19.039062 12.960938 21.5 16 21.5 C 19.039062 21.5 21.5 19.039062 21.5 16 C 21.5 12.960938 19.039062 10.5 16 10.5 Z M 16 20.5 C 13.515625 20.5 11.5 18.484375 11.5 16 C 11.5 13.515625 13.515625 11.5 16 11.5 C 18.484375 11.5 20.5 13.515625 20.5 16 C 20.5 18.484375 18.484375 20.5 16 20.5 Z M 21.5 4 L 10.5 4 C 6.914062 4.007812 4.007812 6.914062 4 10.5 L 4 21.5 C 4.007812 25.085938 6.914062 27.992188 10.5 28 L 21.5 28 C 25.085938 27.992188 27.992188 25.085938 28 21.5 L 28 10.5 C 27.992188 6.914062 25.085938 4.007812 21.5 4 Z M 27 21.5 C 27 24.539062 24.539062 27 21.5 27 L 10.5 27 C 7.460938 27 5 24.539062 5 21.5 L 5 10.5 C 5 7.460938 7.460938 5 10.5 5 L 21.5 5 C 24.539062 5 27 7.460938 27 10.5 Z M 23.5 9.5 C 23.5 10.054688 23.054688 10.5 22.5 10.5 C 21.945312 10.5 21.5 10.054688 21.5 9.5 C 21.5 8.945312 21.945312 8.5 22.5 8.5 C 23.054688 8.5 23.5 8.945312 23.5 9.5 Z M 23.5 9.5 "/>
</g>
</svg>
