<svg width="197" height="172" viewBox="0 0 197 172" fill="none" xmlns="http://www.w3.org/2000/svg">
<path d="M28.5 56.71C28.5 53.59 29.6267 51.0767 31.88 49.17C34.1333 47.1767 36.82 46.18 39.94 46.18C43.1467 46.18 45.8333 47.1767 48 49.17C50.2533 51.0767 51.38 53.59 51.38 56.71C51.38 59.83 50.2533 62.3867 48 64.38C45.8333 66.3733 43.1467 67.37 39.94 67.37C36.82 67.37 34.1333 66.3733 31.88 64.38C29.6267 62.3867 28.5 59.83 28.5 56.71ZM30.45 79.2H49.43V139H30.45V79.2ZM104.468 102.6C104.468 99.0467 103.774 96.3167 102.388 94.41C101.088 92.5033 98.8777 91.55 95.7577 91.55C93.6777 91.55 91.8577 91.9833 90.2977 92.85C88.7377 93.7167 87.5244 94.9733 86.6577 96.62C85.7911 98.2667 85.3577 100.26 85.3577 102.6V139H65.5977V79.2H85.3577V88.17C87.0911 84.8767 89.4311 82.32 92.3777 80.5C95.4111 78.68 99.1377 77.77 103.558 77.77C111.011 77.77 116.428 79.7633 119.808 83.75C123.188 87.7367 124.878 93.3267 124.878 100.52V139H104.468V102.6Z" fill="#CA2061"/>
<rect x="2.5" y="16.5" width="153" height="153" rx="8.5" stroke="#CA2061" stroke-width="5"/>
</svg>
