<?xml version="1.0" encoding="UTF-8"?>
<svg xmlns="http://www.w3.org/2000/svg" xmlns:xlink="http://www.w3.org/1999/xlink" width="32px" height="32px" viewBox="0 0 32 32" version="1.1">
<g id="surface1">
<path style=" stroke:none;fill-rule:nonzero;fill:rgb(100%,100%,100%);fill-opacity:1;" d="M 31.679688 0 L 0.320312 0 C 0.140625 0 0 0.140625 0 0.320312 L 0 31.679688 C 0 31.859375 0.140625 32 0.320312 32 L 31.679688 32 C 31.859375 32 32 31.859375 32 31.679688 L 32 0.320312 C 32 0.140625 31.859375 0 31.679688 0 Z M 31.359375 31.359375 L 0.640625 31.359375 L 0.640625 0.640625 L 31.359375 0.640625 Z M 31.359375 31.359375 "/>
<path style=" stroke:none;fill-rule:nonzero;fill:rgb(100%,100%,100%);fill-opacity:1;" d="M 7.679688 10.648438 C 7.703125 10.648438 7.71875 10.648438 7.742188 10.648438 C 8.476562 10.648438 9.203125 10.351562 9.75 9.820312 C 10.320312 9.265625 10.632812 8.515625 10.632812 7.710938 C 10.640625 6.929688 10.328125 6.1875 9.773438 5.632812 C 9.21875 5.070312 8.476562 4.765625 7.703125 4.765625 C 7.703125 4.765625 7.695312 4.765625 7.695312 4.765625 C 6.914062 4.765625 6.171875 5.070312 5.609375 5.625 C 5.046875 6.179688 4.734375 6.921875 4.734375 7.703125 C 4.734375 8.507812 5.054688 9.257812 5.625 9.820312 C 6.179688 10.359375 6.929688 10.664062 7.679688 10.648438 Z M 6.054688 6.078125 C 6.5 5.640625 7.078125 5.398438 7.695312 5.398438 C 7.695312 5.398438 7.695312 5.398438 7.703125 5.398438 C 8.3125 5.398438 8.882812 5.640625 9.320312 6.078125 C 9.757812 6.523438 10 7.101562 10 7.710938 C 10 8.34375 9.75 8.929688 9.304688 9.367188 C 8.867188 9.789062 8.28125 10.023438 7.6875 10.015625 C 7.6875 10.015625 7.6875 10.015625 7.679688 10.015625 C 7.679688 10.015625 7.679688 10.015625 7.671875 10.015625 C 7.09375 10.023438 6.507812 9.789062 6.070312 9.359375 C 5.625 8.921875 5.375 8.335938 5.375 7.703125 C 5.375 7.09375 5.617188 6.515625 6.054688 6.078125 Z M 6.054688 6.078125 "/>
<path style=" stroke:none;fill-rule:nonzero;fill:rgb(100%,100%,100%);fill-opacity:1;" d="M 9.226562 12.023438 L 6.148438 12.023438 C 5.570312 12.023438 5.109375 12.484375 5.109375 13.0625 L 5.109375 26.195312 C 5.109375 26.765625 5.570312 27.234375 6.148438 27.234375 L 9.226562 27.234375 C 9.796875 27.234375 10.265625 26.765625 10.265625 26.195312 L 10.265625 13.0625 C 10.265625 12.484375 9.796875 12.023438 9.226562 12.023438 Z M 9.632812 26.195312 C 9.632812 26.414062 9.445312 26.59375 9.226562 26.59375 L 6.148438 26.59375 C 5.921875 26.59375 5.742188 26.414062 5.742188 26.195312 L 5.742188 13.0625 C 5.742188 12.835938 5.921875 12.65625 6.148438 12.65625 L 9.226562 12.65625 C 9.445312 12.65625 9.632812 12.835938 9.632812 13.0625 Z M 9.632812 26.195312 "/>
<path style=" stroke:none;fill-rule:nonzero;fill:rgb(100%,100%,100%);fill-opacity:1;" d="M 21.960938 11.648438 L 21.171875 11.648438 C 19.78125 11.648438 18.46875 12.257812 17.570312 13.304688 L 17.570312 12.640625 C 17.570312 12.296875 17.289062 12.023438 16.953125 12.023438 L 13.109375 12.023438 C 12.765625 12.023438 12.492188 12.296875 12.492188 12.640625 L 12.492188 26.617188 C 12.492188 26.953125 12.765625 27.234375 13.109375 27.234375 L 17.03125 27.234375 C 17.375 27.234375 17.65625 26.960938 17.65625 26.617188 L 17.65625 18.539062 C 17.65625 17.3125 18.632812 16.304688 19.84375 16.289062 C 20.453125 16.289062 21.015625 16.515625 21.4375 16.9375 C 21.859375 17.359375 22.09375 17.914062 22.09375 18.507812 L 22.09375 26.617188 C 22.09375 26.960938 22.367188 27.234375 22.710938 27.234375 L 26.640625 27.234375 C 26.804688 27.234375 26.960938 27.171875 27.078125 27.054688 C 27.195312 26.9375 27.265625 26.78125 27.265625 26.617188 L 27.265625 24.921875 C 27.265625 24.75 27.117188 24.609375 26.945312 24.609375 C 26.765625 24.609375 26.625 24.75 26.625 24.921875 L 26.625 26.601562 L 22.726562 26.601562 L 22.726562 18.507812 C 22.726562 17.742188 22.429688 17.03125 21.890625 16.492188 C 21.34375 15.9375 20.617188 15.640625 19.835938 15.65625 C 18.28125 15.671875 17.015625 16.96875 17.015625 18.539062 L 17.015625 26.59375 L 13.132812 26.59375 L 13.132812 12.65625 L 16.929688 12.65625 L 16.929688 14.25 C 16.929688 14.460938 17.132812 14.59375 17.328125 14.570312 C 17.445312 14.5625 17.523438 14.484375 17.578125 14.390625 C 17.648438 14.273438 17.71875 14.15625 17.796875 14.046875 C 18.5625 12.945312 19.828125 12.289062 21.171875 12.289062 L 21.960938 12.289062 C 24.523438 12.289062 26.617188 14.367188 26.625 16.9375 C 26.625 16.9375 26.625 16.945312 26.625 16.953125 L 26.625 18.421875 C 26.625 18.601562 26.765625 18.742188 26.945312 18.742188 C 27.117188 18.742188 27.265625 18.601562 27.265625 18.421875 L 27.265625 16.96875 C 27.265625 16.960938 27.265625 16.953125 27.265625 16.953125 C 27.265625 14.023438 24.882812 11.648438 21.960938 11.648438 Z M 21.960938 11.648438 "/>
<path style=" stroke:none;fill-rule:nonzero;fill:rgb(100%,100%,100%);fill-opacity:1;" d="M 26.945312 20.585938 C 26.765625 20.585938 26.625 20.734375 26.625 20.90625 L 26.625 22.632812 C 26.625 22.804688 26.765625 22.945312 26.945312 22.945312 C 27.117188 22.945312 27.257812 22.804688 27.257812 22.632812 L 27.257812 20.90625 C 27.257812 20.734375 27.117188 20.585938 26.945312 20.585938 Z M 26.945312 20.585938 "/>
<path style=" stroke:none;fill-rule:nonzero;fill:rgb(100%,100%,100%);fill-opacity:1;" d="M 26.007812 3.25 L 28.75 3.25 C 28.921875 3.25 29.070312 3.109375 29.070312 2.929688 C 29.070312 2.757812 28.921875 2.617188 28.75 2.617188 L 26.007812 2.617188 C 25.828125 2.617188 25.6875 2.757812 25.6875 2.929688 C 25.6875 3.109375 25.828125 3.25 26.007812 3.25 Z M 26.007812 3.25 "/>
<path style=" stroke:none;fill-rule:nonzero;fill:rgb(100%,100%,100%);fill-opacity:1;" d="M 12.75 3.25 L 22.820312 3.25 C 23 3.25 23.140625 3.109375 23.140625 2.929688 C 23.140625 2.757812 23 2.617188 22.820312 2.617188 L 12.75 2.617188 C 12.570312 2.617188 12.429688 2.757812 12.429688 2.929688 C 12.429688 3.109375 12.570312 3.25 12.75 3.25 Z M 12.75 3.25 "/>
</g>
</svg>
