<svg width="88" height="88" viewBox="0 0 88 88" fill="none" xmlns="http://www.w3.org/2000/svg">
<g clip-path="url(#clip0_145_2894)">
<path d="M26.9968 -0.000245321C28.5998 -0.000245391 30.2049 -0.000245461 31.808 -0.000245531C31.9693 0.0514055 32.1264 0.133185 32.2899 0.148253C37.4045 0.660452 42.106 2.32834 46.2308 5.39941C56.0554 12.7145 60.0726 22.4528 58.1727 34.5799C58.0931 35.09 58.2114 35.2988 58.6374 35.4946C59.4422 35.8626 60.2297 36.2694 61.0172 36.674C62.603 37.4896 62.8246 38.7895 61.5573 40.0485C60.858 40.7436 60.092 41.3742 59.3109 42.0736C59.7413 42.4761 59.9779 42.6848 60.2017 42.9065C69.071 51.7753 77.9424 60.6421 86.8053 69.5174C87.2442 69.9586 87.6036 70.4815 87.9995 70.9658C87.9995 76.2363 87.9995 81.5047 87.9995 86.7752C87.3905 87.7437 86.5148 88.0105 85.3873 87.9976C80.9204 87.946 76.4535 87.961 71.9865 87.989C71.1194 87.9954 70.4481 87.7264 69.8478 87.1131C68.305 85.5377 66.6568 84.0592 65.2001 82.4086C64.0554 81.113 62.8268 80.3382 61.0602 80.6718C60.9225 80.6976 60.7741 80.6761 60.6321 80.6632C59.3346 80.5427 58.6848 79.8669 58.6417 78.552C58.6181 77.8375 58.659 77.1187 58.6245 76.4042C58.6116 76.1416 58.532 75.8317 58.3685 75.638C57.114 74.1444 55.7735 72.808 53.5444 73.3438C53.3852 73.3826 53.2001 73.3438 53.0323 73.3137C52.0124 73.1329 51.4551 72.5885 51.3604 71.549C51.2872 70.7527 51.3453 69.9478 51.2959 69.1472C51.2786 68.8567 51.199 68.5102 51.0183 68.295C49.1183 66.0267 49.0753 66.0137 46.1253 65.9793C46.0393 65.9793 45.9532 65.9815 45.8671 65.9772C44.7741 65.9212 44.0511 65.2175 44.0145 64.1263C43.9887 63.3537 44.0274 62.579 43.9973 61.8064C43.9865 61.5438 43.9198 61.2274 43.7606 61.0359C43.2916 60.472 42.7622 59.9577 42.1684 59.3271C41.3658 60.1729 40.6837 60.9455 39.9435 61.66C38.816 62.749 37.5143 62.5252 36.7784 61.1371C36.3222 60.2805 35.9306 59.3874 35.4443 58.5481C35.3195 58.3328 34.9344 58.1327 34.6805 58.1456C32.404 58.264 30.1253 58.5911 27.8531 58.5545C23.255 58.4792 18.9602 57.1341 14.9731 54.8701C9.31845 51.6613 5.14416 47.0665 2.51049 41.1267C-0.032812 35.387 -0.62668 29.402 0.651426 23.262C1.56805 18.8587 3.42926 14.8687 6.21356 11.3285C10.1339 6.34419 15.1194 2.90081 21.2302 1.17481C23.113 0.647544 25.0732 0.384986 26.9968 -0.000245321ZM20.0683 29.2793C25.0645 29.3826 29.1915 25.3624 29.2991 20.2877C29.4045 15.3099 25.3679 11.1305 20.3287 11.0057C15.3819 10.883 11.1044 15.0495 11.0204 20.0725C10.9408 25.0138 15.029 29.176 20.0683 29.2793ZM49.88 47.7251C48.4922 47.7229 47.6358 48.5106 47.78 49.5135C47.8617 50.0795 48.2017 50.7036 48.6127 51.1146C56.8903 59.4369 65.1915 67.7311 73.4927 76.0297C73.695 76.232 73.9016 76.4343 74.1361 76.5935C75.227 77.3339 76.5503 76.8217 76.8903 75.5455C77.1356 74.6244 76.6084 74.0304 76.0317 73.4536C71.5175 68.9406 67.0032 64.4276 62.489 59.9146C58.7235 56.1506 54.9666 52.3779 51.1818 48.6333C50.7407 48.1942 50.1512 47.908 49.88 47.7251Z" fill="white"/>
</g>
<defs>
<clipPath id="clip0_145_2894">
<rect width="88" height="88" fill="white" transform="translate(0 88) rotate(-90)"/>
</clipPath>
</defs>
</svg>
