<?xml version="1.0" encoding="UTF-8"?>
<svg xmlns="http://www.w3.org/2000/svg" xmlns:xlink="http://www.w3.org/1999/xlink" width="32px" height="32px" viewBox="0 0 32 32" version="1.1">
<g id="surface1">
<path style=" stroke:none;fill-rule:nonzero;fill:rgb(0%,0%,0%);fill-opacity:1;" d="M 31.679688 6.265625 C 30.523438 6.78125 29.289062 7.125 27.984375 7.28125 C 29.3125 6.484375 30.335938 5.21875 30.8125 3.71875 C 29.578125 4.460938 28.195312 5 26.726562 5.28125 C 25.554688 4.03125 23.875 3.242188 22.03125 3.242188 C 18.476562 3.242188 15.601562 6.125 15.601562 9.679688 C 15.601562 10.1875 15.65625 10.679688 15.765625 11.148438 C 10.414062 10.882812 5.664062 8.320312 2.492188 4.414062 C 1.945312 5.367188 1.625 6.476562 1.625 7.648438 C 1.625 9.882812 2.757812 11.859375 4.484375 13.015625 C 3.4375 12.992188 2.4375 12.695312 1.578125 12.210938 C 1.578125 12.234375 1.578125 12.265625 1.578125 12.289062 C 1.578125 15.414062 3.796875 18.015625 6.742188 18.601562 C 6.203125 18.75 5.625 18.828125 5.046875 18.828125 C 4.632812 18.828125 4.226562 18.796875 3.835938 18.710938 C 4.648438 21.273438 7.03125 23.132812 9.84375 23.1875 C 7.648438 24.914062 4.867188 25.945312 1.851562 25.945312 C 1.335938 25.945312 0.820312 25.914062 0.320312 25.851562 C 3.15625 27.695312 6.539062 28.765625 10.164062 28.765625 C 22.007812 28.765625 28.492188 18.953125 28.492188 10.4375 C 28.492188 10.15625 28.484375 9.875 28.46875 9.601562 C 29.71875 8.6875 30.8125 7.5625 31.679688 6.265625 Z M 27.84375 8.734375 L 27.375 9.078125 L 27.398438 9.648438 C 27.414062 9.898438 27.421875 10.164062 27.421875 10.429688 C 27.421875 12.4375 27.023438 14.539062 26.289062 16.515625 C 25.515625 18.585938 24.398438 20.460938 22.96875 22.078125 C 21.4375 23.8125 19.632812 25.171875 17.578125 26.125 C 15.335938 27.164062 12.84375 27.6875 10.171875 27.6875 C 8.25 27.6875 6.351562 27.367188 4.554688 26.742188 C 5.210938 26.617188 5.859375 26.4375 6.484375 26.21875 C 7.929688 25.71875 9.273438 24.976562 10.476562 24.03125 L 12.828125 22.1875 L 9.84375 22.132812 C 8.109375 22.101562 6.539062 21.242188 5.570312 19.882812 C 6.054688 19.851562 6.53125 19.765625 7 19.632812 L 11.03125 18.289062 L 6.929688 17.570312 C 4.96875 17.179688 3.421875 15.71875 2.859375 13.859375 C 3.375 13.992188 3.882812 14.046875 4.445312 14.078125 C 4.445312 14.078125 6.554688 14.171875 8.15625 14.070312 C 7.289062 13.664062 5.070312 12.132812 5.070312 12.132812 C 3.578125 11.132812 2.671875 9.460938 2.671875 7.65625 C 2.671875 7.226562 2.726562 6.804688 2.820312 6.390625 C 4.28125 7.875 5.945312 9.125 7.8125 10.078125 C 10.273438 11.351562 12.921875 12.0625 15.695312 12.195312 L 17.101562 12.273438 L 16.78125 10.898438 C 16.6875 10.5 16.640625 10.09375 16.640625 9.664062 C 16.640625 6.71875 19.054688 4.304688 22.015625 4.304688 C 23.5 4.304688 24.929688 4.921875 25.9375 6.007812 L 26.34375 6.4375 L 26.921875 6.328125 C 27.21875 6.265625 27.515625 6.203125 27.804688 6.125 C 27.742188 6.210938 27.429688 6.53125 27.078125 6.835938 C 26.78125 7.101562 25.890625 7.9375 25.890625 7.9375 C 25.890625 7.9375 26.757812 8.210938 27.296875 8.265625 C 27.835938 8.328125 28.453125 8.226562 28.554688 8.210938 C 28.375 8.367188 28.039062 8.601562 27.84375 8.734375 Z M 27.84375 8.734375 "/>
</g>
</svg>
